<?xml version="1.0" encoding="UTF-8" standalone="no"?>
<!-- Uploaded to: SVG Repo, www.svgrepo.com, Generator: SVG Repo Mixer Tools -->

<svg
   version="1.1"
   id="Icons"
   viewBox="0 0 48 48"
   xml:space="preserve"
   width="48"
   height="48"
   xmlns="http://www.w3.org/2000/svg"
   xmlns:svg="http://www.w3.org/2000/svg"><defs
   id="defs21" />
<style
   type="text/css"
   id="style2">
	.st0{fill:none;stroke:#000000;stroke-width:2;stroke-linecap:round;stroke-linejoin:round;stroke-miterlimit:10;}
	.st1{fill:none;stroke:#000000;stroke-width:2;stroke-linejoin:round;stroke-miterlimit:10;}
	.st2{fill:none;stroke:#000000;stroke-width:2;stroke-linecap:round;stroke-miterlimit:10;}
</style>
<path
   class="st0"
   d="M 3.6357828,7.9905061 V 33.150931 c 0,1.845099 1.435711,3.354723 3.1904691,3.354723 H 41.921413 c 1.754758,0 3.190468,-1.509624 3.190468,-3.354723 V 7.9905061 c 0,-1.8450978 -1.43571,-3.3547233 -3.190468,-3.3547233 H 6.8262519 c -1.7547581,0 -3.1904691,1.5096255 -3.1904691,3.3547233 z"
   id="path4" />
<line
   class="st0"
   x1="3.635783"
   y1="29.796209"
   x2="45.111881"
   y2="29.796209"
   id="line6" />
<line
   class="st0"
   x1="13.207191"
   y1="46.56982"
   x2="35.54047"
   y2="46.56982"
   id="line8" />
<path
   class="st2"
   d="m 19.588128,36.505654 c 0,3.52246 -1.116664,7.715864 -2.871422,10.06417"
   id="path10" />
<path
   class="st2"
   d="m 32.030958,46.569824 c -1.754756,-2.348306 -2.871423,-6.54171 -2.871423,-10.06417"
   id="path12" />
<path
   class="st0"
   d="m 28.84049,24.764123 c 0.159523,-0.503208 0.319045,-1.006417 0.319045,-1.677362 0,-2.851515 -2.073804,-5.032083 -4.785702,-5.032083 -2.711901,0 -4.785705,2.180568 -4.785705,5.032083 0,0.670945 0.159523,1.174154 0.319046,1.677362"
   id="path14" />
<path
   class="st0"
   d="m 37.614278,24.764123 c 0,-0.503208 0.159524,-1.174152 0.159524,-1.677362 0,-1.174153 -0.159524,-2.18057 -0.319047,-3.186987 -1.595233,0.167736 -3.19047,-0.503209 -3.988087,-2.18057 -0.797617,-1.509624 -0.638095,-3.354724 0.319048,-4.696612 -1.435712,-1.509627 -3.349993,-2.68378 -5.423799,-3.3547242 -0.797617,1.5096262 -2.233327,2.6837782 -3.988084,2.6837782 -1.754758,0 -3.190471,-1.174152 -3.828564,-2.6837782 -2.073805,0.6709442 -3.828563,1.8450972 -5.4238,3.3547242 0.957144,1.341888 1.116667,3.186988 0.319048,4.696612 -0.797617,1.509624 -2.552375,2.348306 -3.988085,2.18057 -0.159524,1.006417 -0.319047,2.180569 -0.319047,3.186987 0,0.50321 0,1.174154 0.159523,1.677362"
   id="path16" />
</svg>
